<svg xmlns="http://www.w3.org/2000/svg" xmlns:xlink="http://www.w3.org/1999/xlink" width="500" zoomAndPan="magnify" viewBox="0 0 375 374.999991" height="500" preserveAspectRatio="xMidYMid meet" version="1.0"><defs><g/><clipPath id="ee126d4bea"><path d="M 3.796875 145.761719 L 43 145.761719 L 43 199.761719 L 3.796875 199.761719 Z M 3.796875 145.761719 " clip-rule="nonzero"/></clipPath><clipPath id="67df42dd7f"><path d="M 37 145.761719 L 77 145.761719 L 77 199.761719 L 37 199.761719 Z M 37 145.761719 " clip-rule="nonzero"/></clipPath><clipPath id="4feb79567a"><path d="M 71 145.761719 L 110.296875 145.761719 L 110.296875 199.761719 L 71 199.761719 Z M 71 145.761719 " clip-rule="nonzero"/></clipPath></defs><g fill="#0097b2" fill-opacity="1"><g transform="translate(113.336226, 191.731994)"><g><path d="M 31.875 0 L 31.875 -15.453125 L 17.46875 -15.453125 L 17.46875 0 L 4.390625 0 L 4.390625 -40.75 L 17.46875 -40.75 L 17.46875 -25.890625 L 31.875 -25.890625 L 31.875 -40.75 L 44.953125 -40.75 L 44.953125 0 Z M 31.875 0 "/></g></g></g><g fill="#0097b2" fill-opacity="1"><g transform="translate(159.295149, 191.731994)"><g><path d="M 3.96875 -34.953125 L 3.96875 -42.9375 L 15.75 -42.9375 L 15.75 -34.953125 Z M 3.96875 0 L 3.96875 -31.28125 L 15.75 -31.28125 L 15.75 0 Z M 3.96875 0 "/></g></g></g><g fill="#0097b2" fill-opacity="1"><g transform="translate(175.640793, 191.731994)"><g><path d="M 38.734375 -37.140625 C 38.734375 -34.734375 38.128906 -32.878906 36.921875 -31.578125 C 35.722656 -30.273438 33.921875 -29.304688 31.515625 -28.671875 C 32.660156 -27.796875 33.554688 -26.773438 34.203125 -25.609375 C 34.859375 -24.453125 35.1875 -23.222656 35.1875 -21.921875 C 35.1875 -18.597656 33.929688 -16.085938 31.421875 -14.390625 C 28.910156 -12.691406 25.78125 -11.84375 22.03125 -11.84375 L 17.53125 -11.84375 C 15.039062 -11.84375 13.796875 -11.269531 13.796875 -10.125 C 13.796875 -9.570312 14.070312 -9.128906 14.625 -8.796875 C 15.175781 -8.460938 16.144531 -8.296875 17.53125 -8.296875 L 28.203125 -8.296875 C 31.671875 -8.296875 34.289062 -7.382812 36.0625 -5.5625 C 37.84375 -3.75 38.734375 -1.320312 38.734375 1.71875 C 38.734375 3.96875 38.140625 5.898438 36.953125 7.515625 C 35.773438 9.140625 34.175781 10.363281 32.15625 11.1875 C 30.144531 12.019531 27.957031 12.4375 25.59375 12.4375 L 8.171875 12.4375 C 6.753906 12.4375 5.441406 12.097656 4.234375 11.421875 C 3.023438 10.753906 2.066406 9.835938 1.359375 8.671875 C 0.648438 7.515625 0.296875 6.222656 0.296875 4.796875 C 0.296875 3.253906 0.769531 1.859375 1.71875 0.609375 C 2.664062 -0.628906 3.847656 -1.5625 5.265625 -2.1875 C 4.316406 -2.863281 3.566406 -3.675781 3.015625 -4.625 C 2.460938 -5.570312 2.1875 -6.597656 2.1875 -7.703125 C 2.1875 -9.242188 2.757812 -10.632812 3.90625 -11.875 C 5.050781 -13.125 6.472656 -13.960938 8.171875 -14.390625 C 6.628906 -15.378906 5.40625 -16.515625 4.5 -17.796875 C 3.59375 -19.078125 3.140625 -20.429688 3.140625 -21.859375 C 3.140625 -25.492188 4.609375 -28.085938 7.546875 -29.640625 C 10.492188 -31.203125 14.394531 -31.984375 19.25 -31.984375 C 21.382812 -31.984375 23.101562 -31.863281 24.40625 -31.625 C 26.34375 -32.851562 27.597656 -33.96875 28.171875 -34.96875 C 28.742188 -35.976562 29.03125 -36.703125 29.03125 -37.140625 Z M 19.125 -25.828125 C 17.820312 -25.828125 16.753906 -25.488281 15.921875 -24.8125 C 15.097656 -24.144531 14.6875 -23.179688 14.6875 -21.921875 C 14.6875 -20.617188 15.070312 -19.640625 15.84375 -18.984375 C 16.613281 -18.328125 17.707031 -18 19.125 -18 C 20.550781 -18 21.664062 -18.328125 22.46875 -18.984375 C 23.28125 -19.640625 23.6875 -20.617188 23.6875 -21.921875 C 23.6875 -23.222656 23.28125 -24.195312 22.46875 -24.84375 C 21.664062 -25.5 20.550781 -25.828125 19.125 -25.828125 Z M 14.578125 0 C 13.660156 0 12.914062 0.242188 12.34375 0.734375 C 11.769531 1.234375 11.484375 1.9375 11.484375 2.84375 C 11.484375 3.75 11.78125 4.476562 12.375 5.03125 C 12.96875 5.582031 13.703125 5.859375 14.578125 5.859375 L 23.8125 5.859375 C 24.675781 5.859375 25.414062 5.59375 26.03125 5.0625 C 26.644531 4.53125 26.953125 3.8125 26.953125 2.90625 C 26.953125 2 26.65625 1.285156 26.0625 0.765625 C 25.46875 0.253906 24.71875 0 23.8125 0 Z M 14.578125 0 "/></g></g></g><g fill="#0097b2" fill-opacity="1"><g transform="translate(211.768112, 191.731994)"><g><path d="M 15.34375 -28.015625 C 16.601562 -29.273438 18.082031 -30.25 19.78125 -30.9375 C 21.476562 -31.632812 23.253906 -31.984375 25.109375 -31.984375 C 28.742188 -31.984375 31.46875 -30.972656 33.28125 -28.953125 C 35.101562 -26.941406 36.015625 -24.046875 36.015625 -20.265625 L 36.015625 0 L 24.234375 0 L 24.234375 -18.84375 C 24.234375 -20.175781 23.882812 -21.25 23.1875 -22.0625 C 22.5 -22.875 21.523438 -23.28125 20.265625 -23.28125 C 18.796875 -23.28125 17.609375 -22.804688 16.703125 -21.859375 C 15.796875 -20.910156 15.34375 -19.742188 15.34375 -18.359375 L 15.34375 0 L 3.546875 0 L 3.546875 -42.9375 L 15.34375 -42.9375 Z M 15.34375 -28.015625 "/></g></g></g><g fill="#0097b2" fill-opacity="1"><g transform="translate(247.895425, 191.731994)"><g><path d="M 33.53125 0 L 16.40625 -19.78125 L 16.40625 0 L 4.390625 0 L 4.390625 -40.75 L 15.8125 -40.75 L 32.9375 -20.671875 L 32.9375 -40.75 L 44.953125 -40.75 L 44.953125 0 Z M 33.53125 0 "/></g></g></g><g fill="#0097b2" fill-opacity="1"><g transform="translate(293.854345, 191.731994)"><g><path d="M 19.71875 -31.984375 C 25.445312 -31.984375 29.820312 -30.640625 32.84375 -27.953125 C 35.863281 -25.273438 37.375 -21.171875 37.375 -15.640625 L 37.375 -13.625 L 13.921875 -13.625 C 13.921875 -11.375 14.421875 -9.675781 15.421875 -8.53125 C 16.429688 -7.382812 18.023438 -6.8125 20.203125 -6.8125 C 22.171875 -6.8125 23.617188 -7.222656 24.546875 -8.046875 C 25.472656 -8.878906 25.9375 -9.988281 25.9375 -11.375 L 37.375 -11.375 C 37.375 -7.582031 35.929688 -4.617188 33.046875 -2.484375 C 30.171875 -0.359375 25.96875 0.703125 20.4375 0.703125 C 14.632812 0.703125 10.128906 -0.644531 6.921875 -3.34375 C 3.722656 -6.050781 2.125 -10.148438 2.125 -15.640625 C 2.125 -21.003906 3.679688 -25.066406 6.796875 -27.828125 C 9.921875 -30.597656 14.226562 -31.984375 19.71875 -31.984375 Z M 20.203125 -24.46875 C 16.484375 -24.46875 14.410156 -22.707031 13.984375 -19.1875 L 25.46875 -19.1875 C 25.46875 -20.8125 25.003906 -22.097656 24.078125 -23.046875 C 23.148438 -23.992188 21.859375 -24.46875 20.203125 -24.46875 Z M 20.203125 -24.46875 "/></g></g></g><g fill="#0097b2" fill-opacity="1"><g transform="translate(329.981658, 191.731994)"><g><path d="M 24.40625 -31.28125 L 24.40625 -23.28125 L 17.765625 -23.28125 L 17.765625 -11.375 C 17.765625 -9.945312 18 -8.90625 18.46875 -8.25 C 18.945312 -7.601562 19.820312 -7.28125 21.09375 -7.28125 L 24.40625 -7.28125 L 24.40625 -0.359375 C 23.457031 -0.0351562 22.234375 0.21875 20.734375 0.40625 C 19.234375 0.601562 17.929688 0.703125 16.828125 0.703125 C 13.347656 0.703125 10.671875 0.0703125 8.796875 -1.1875 C 6.921875 -2.445312 5.984375 -4.597656 5.984375 -7.640625 L 5.984375 -23.28125 L 1.59375 -23.28125 L 1.59375 -31.28125 L 6.453125 -31.28125 L 9 -40.75 L 17.765625 -40.75 L 17.765625 -31.28125 Z M 24.40625 -31.28125 "/></g></g></g><g clip-path="url(#ee126d4bea)"><path fill="#e4e2dd" d="M 3.863281 199.445312 L 22.929688 199.445312 L 42.644531 172.386719 L 22.921875 145.761719 L 3.847656 145.761719 L 22.257812 172.683594 Z M 3.863281 199.445312 " fill-opacity="1" fill-rule="evenodd"/></g><g clip-path="url(#67df42dd7f)"><path fill="#5a7c95" d="M 56.226562 172.683594 L 37.824219 145.761719 L 56.890625 145.761719 L 76.605469 172.386719 L 56.898438 199.445312 L 37.839844 199.445312 Z M 56.226562 172.683594 " fill-opacity="1" fill-rule="evenodd"/></g><g clip-path="url(#4feb79567a)"><path fill="#3a576c" d="M 89.945312 172.683594 L 71.546875 145.761719 L 90.609375 145.761719 L 110.324219 172.386719 L 90.617188 199.445312 L 71.558594 199.445312 Z M 89.945312 172.683594 " fill-opacity="1" fill-rule="evenodd"/></g></svg>